<svg width="81" height="17" viewBox="0 0 81 17" fill="none" xmlns="http://www.w3.org/2000/svg">
<path d="M0 15.7031V0H3.25781V12.7734H10.9922V15.7031H0ZM19.5703 16.0547C18.6953 16.0547 17.875 15.9062 17.1094 15.6094C16.3438 15.2969 15.6641 14.8672 15.0703 14.3203C14.4922 13.7734 14.0391 13.125 13.7109 12.375C13.3828 11.625 13.2188 10.8047 13.2188 9.91406C13.2188 8.75781 13.4766 7.70312 13.9922 6.75C14.5078 5.78125 15.2188 5.00781 16.125 4.42969C17.0312 3.85156 18.0625 3.5625 19.2188 3.5625C20.375 3.5625 21.3672 3.8125 22.1953 4.3125C23.0391 4.8125 23.6797 5.50781 24.1172 6.39844C24.5703 7.27344 24.7969 8.28906 24.7969 9.44531V10.7109H15.9609V8.67188H21.9375C21.9062 8.09375 21.75 7.625 21.4688 7.26562C21.1875 6.89062 20.8438 6.61719 20.4375 6.44531C20.0312 6.25781 19.6016 6.16406 19.1484 6.16406C18.5391 6.16406 18.0078 6.32031 17.5547 6.63281C17.1172 6.94531 16.7734 7.38281 16.5234 7.94531C16.2734 8.50781 16.1484 9.16406 16.1484 9.91406C16.1484 10.5859 16.2969 11.1797 16.5938 11.6953C16.8906 12.2109 17.3047 12.6172 17.8359 12.9141C18.3828 13.2109 19 13.3594 19.6875 13.3594C20.5625 13.3594 21.3438 13.1875 22.0312 12.8438C22.7344 12.5 23.2891 12.1484 23.6953 11.7891V14.5547C23.4609 14.7734 23.1328 15 22.7109 15.2344C22.2891 15.4688 21.8047 15.6641 21.2578 15.8203C20.7266 15.9766 20.1641 16.0547 19.5703 16.0547ZM30.75 16.0547C30.2188 16.0547 29.6953 15.9922 29.1797 15.8672C28.6641 15.7578 28.1875 15.6094 27.75 15.4219C27.3281 15.2344 26.9844 15.0469 26.7188 14.8594V12.2578C27.0156 12.4609 27.375 12.6562 27.7969 12.8438C28.2188 13.0312 28.6562 13.1875 29.1094 13.3125C29.5625 13.4219 29.9766 13.4766 30.3516 13.4766C30.9453 13.4766 31.3984 13.3672 31.7109 13.1484C32.0391 12.9297 32.2031 12.6328 32.2031 12.2578C32.2031 11.9609 32.0703 11.7266 31.8047 11.5547C31.5391 11.3828 31.1484 11.2109 30.6328 11.0391L29.1797 10.5234C28.2891 10.2266 27.6641 9.80469 27.3047 9.25781C26.9609 8.71094 26.7891 8.0625 26.7891 7.3125C26.7891 6.5625 26.9766 5.91406 27.3516 5.36719C27.7422 4.80469 28.2812 4.36719 28.9688 4.05469C29.6719 3.72656 30.4609 3.5625 31.3359 3.5625C32.0703 3.5625 32.75 3.67188 33.375 3.89062C34.0156 4.09375 34.5 4.34375 34.8281 4.64062V7.26562C34.4688 7.01562 34.0156 6.77344 33.4688 6.53906C32.9375 6.30469 32.375 6.1875 31.7812 6.1875C31.2188 6.1875 30.7734 6.3125 30.4453 6.5625C30.1172 6.8125 29.9531 7.10938 29.9531 7.45312C29.9531 7.70312 30.0469 7.9375 30.2344 8.15625C30.4375 8.35938 30.7969 8.53906 31.3125 8.69531L32.6484 9.14062C33.5703 9.40625 34.25 9.80469 34.6875 10.3359C35.125 10.8516 35.3438 11.4922 35.3438 12.2578C35.3438 12.9766 35.1328 13.625 34.7109 14.2031C34.3047 14.7812 33.75 15.2344 33.0469 15.5625C32.3594 15.8906 31.5938 16.0547 30.75 16.0547ZM41.1094 16.0547C40.5781 16.0547 40.0547 15.9922 39.5391 15.8672C39.0234 15.7578 38.5469 15.6094 38.1094 15.4219C37.6875 15.2344 37.3438 15.0469 37.0781 14.8594V12.2578C37.375 12.4609 37.7344 12.6562 38.1562 12.8438C38.5781 13.0312 39.0156 13.1875 39.4688 13.3125C39.9219 13.4219 40.3359 13.4766 40.7109 13.4766C41.3047 13.4766 41.7578 13.3672 42.0703 13.1484C42.3984 12.9297 42.5625 12.6328 42.5625 12.2578C42.5625 11.9609 42.4297 11.7266 42.1641 11.5547C41.8984 11.3828 41.5078 11.2109 40.9922 11.0391L39.5391 10.5234C38.6484 10.2266 38.0234 9.80469 37.6641 9.25781C37.3203 8.71094 37.1484 8.0625 37.1484 7.3125C37.1484 6.5625 37.3359 5.91406 37.7109 5.36719C38.1016 4.80469 38.6406 4.36719 39.3281 4.05469C40.0312 3.72656 40.8203 3.5625 41.6953 3.5625C42.4297 3.5625 43.1094 3.67188 43.7344 3.89062C44.375 4.09375 44.8594 4.34375 45.1875 4.64062V7.26562C44.8281 7.01562 44.375 6.77344 43.8281 6.53906C43.2969 6.30469 42.7344 6.1875 42.1406 6.1875C41.5781 6.1875 41.1328 6.3125 40.8047 6.5625C40.4766 6.8125 40.3125 7.10938 40.3125 7.45312C40.3125 7.70312 40.4062 7.9375 40.5938 8.15625C40.7969 8.35938 41.1562 8.53906 41.6719 8.69531L43.0078 9.14062C43.9297 9.40625 44.6094 9.80469 45.0469 10.3359C45.4844 10.8516 45.7031 11.4922 45.7031 12.2578C45.7031 12.9766 45.4922 13.625 45.0703 14.2031C44.6641 14.7812 44.1094 15.2344 43.4062 15.5625C42.7188 15.8906 41.9531 16.0547 41.1094 16.0547ZM53.7422 16.0547C52.8828 16.0547 52.0703 15.8984 51.3047 15.5859C50.5547 15.2578 49.8828 14.8125 49.2891 14.25C48.6953 13.6875 48.2344 13.0312 47.9062 12.2812C47.5781 11.5156 47.4141 10.6953 47.4141 9.82031C47.4141 8.94531 47.5781 8.13281 47.9062 7.38281C48.2344 6.61719 48.6953 5.95312 49.2891 5.39062C49.8828 4.8125 50.5547 4.36719 51.3047 4.05469C52.0703 3.72656 52.8828 3.5625 53.7422 3.5625C54.6016 3.5625 55.4141 3.72656 56.1797 4.05469C56.9453 4.36719 57.6172 4.8125 58.1953 5.39062C58.7891 5.95312 59.25 6.61719 59.5781 7.38281C59.9219 8.13281 60.0938 8.94531 60.0938 9.82031C60.0938 10.6953 59.9219 11.5156 59.5781 12.2812C59.25 13.0312 58.7891 13.6875 58.1953 14.25C57.6172 14.8125 56.9453 15.2578 56.1797 15.5859C55.4141 15.8984 54.6016 16.0547 53.7422 16.0547ZM53.7422 13.1719C54.3203 13.1719 54.8438 13.0469 55.3125 12.7969C55.7969 12.5312 56.1875 12.1484 56.4844 11.6484C56.7812 11.1328 56.9297 10.5234 56.9297 9.82031C56.9297 9.08594 56.7812 8.46875 56.4844 7.96875C56.1875 7.46875 55.7969 7.09375 55.3125 6.84375C54.8438 6.57812 54.3203 6.44531 53.7422 6.44531C53.1953 6.44531 52.6719 6.57812 52.1719 6.84375C51.6875 7.09375 51.2969 7.46875 51 7.96875C50.7188 8.46875 50.5781 9.08594 50.5781 9.82031C50.5781 10.5234 50.7188 11.1328 51 11.6484C51.2969 12.1484 51.6875 12.5312 52.1719 12.7969C52.6719 13.0469 53.1953 13.1719 53.7422 13.1719ZM70.7344 15.7031L70.7109 8.83594C70.7109 8.03906 70.5156 7.44531 70.125 7.05469C69.75 6.66406 69.2266 6.46875 68.5547 6.46875C68.0234 6.46875 67.5312 6.64062 67.0781 6.98438C66.625 7.32812 66.2266 7.73438 65.8828 8.20312V5.55469C66.1328 5.22656 66.4297 4.91406 66.7734 4.61719C67.1328 4.30469 67.5391 4.05469 67.9922 3.86719C68.4453 3.66406 68.9375 3.5625 69.4688 3.5625C70.2812 3.5625 71.0078 3.74219 71.6484 4.10156C72.2891 4.46094 72.7891 5.00781 73.1484 5.74219C73.5234 6.46094 73.7109 7.35938 73.7109 8.4375V15.7031H70.7344ZM62.9062 15.7031V3.86719H65.8828V15.7031H62.9062Z" fill="#171100"/>
<path d="M78.5391 16.125C78.0234 16.125 77.5781 15.9453 77.2031 15.5859C76.8438 15.2109 76.6641 14.7734 76.6641 14.2734C76.6641 13.7422 76.8438 13.2969 77.2031 12.9375C77.5781 12.5625 78.0234 12.375 78.5391 12.375C79.0547 12.375 79.4922 12.5625 79.8516 12.9375C80.2266 13.2969 80.4141 13.7422 80.4141 14.2734C80.4141 14.7734 80.2266 15.2109 79.8516 15.5859C79.4922 15.9453 79.0547 16.125 78.5391 16.125Z" fill="#FFB900"/>
</svg>
